HIERARCHY
ROOT hip
{
  OFFSET 0 90.174 2.4664
  CHANNELS 6 Xposition Yposition Zposition Zrotation Xrotation Yrotation
  JOINT abdomen
  {
    OFFSET 0 -1.186 -1.5018
    CHANNELS 6 Xposition Yposition Zposition Zrotation Xrotation Yrotation
    JOINT abdomen2
    {
      OFFSET 0 9.964 0.2134
      CHANNELS 6 Xposition Yposition Zposition Zrotation Xrotation Yrotation
      JOINT chest
      {
        OFFSET 0 13.134 -3.2573
        CHANNELS 6 Xposition Yposition Zposition Zrotation Xrotation Yrotation
        JOINT neck
        {
          OFFSET 0 20.686 -1.6905
          CHANNELS 6 Xposition Yposition Zposition Zrotation Xrotation Yrotation
          JOINT head
          {
            OFFSET 0 7.238 -0.1237
            CHANNELS 6 Xposition Yposition Zposition Zrotation Xrotation Yrotation
            End Site
            {
              OFFSET 0 0 0
            }
          }
        }
        JOINT lCollar
        {
          OFFSET 1.7069 20.075 5.0056
          CHANNELS 6 Xposition Yposition Zposition Zrotation Xrotation Yrotation
          JOINT lShldr
          {
            OFFSET 13.6458 -0.047 -4.849
            CHANNELS 6 Xposition Yposition Zposition Zrotation Xrotation Yrotation
            JOINT lForeArm
            {
              OFFSET 28.3255 -0.9759 2.2888
              CHANNELS 6 Xposition Yposition Zposition Zrotation Xrotation Yrotation
              JOINT lHand
              {
                OFFSET 22.1583 -0.53 10.8316
                CHANNELS 6 Xposition Yposition Zposition Zrotation Xrotation Yrotation
                JOINT lThumb1
                {
                  OFFSET 0.786 0.112 2.5817
                  CHANNELS 6 Xposition Yposition Zposition Zrotation Xrotation Yrotation
                  JOINT lThumb2
                  {
                    OFFSET 0.3601 -0.878 4.2331
                    CHANNELS 6 Xposition Yposition Zposition Zrotation Xrotation Yrotation
                    JOINT lThumb2_End
                    {
                      OFFSET 1.8127 -1.216 2.2227
                      CHANNELS 6 Xposition Yposition Zposition Zrotation Xrotation Yrotation
                      End Site
                      {
                        OFFSET 0.0181 -0.0122 0.0222
                      }
                    }
                  }
                }
                JOINT lCarpal1
                {
                  OFFSET 0.9571 1.114 1.7695
                  CHANNELS 6 Xposition Yposition Zposition Zrotation Xrotation Yrotation
                  JOINT lIndex1
                  {
                    OFFSET 4.1246 0.487 4.1451
                    CHANNELS 6 Xposition Yposition Zposition Zrotation Xrotation Yrotation
                    JOINT lIndex2
                    {
                      OFFSET 3.4052 -1.454 2.7682
                      CHANNELS 6 Xposition Yposition Zposition Zrotation Xrotation Yrotation
                      JOINT lIndex2_End
                      {
                        OFFSET 1.4531 -1.795 1.2713
                        CHANNELS 6 Xposition Yposition Zposition Zrotation Xrotation Yrotation
                        End Site
                        {
                          OFFSET 0.0145 -0.0179 0.0127
                        }
                      }
                    }
                  }
                  JOINT lMid1
                  {
                    OFFSET 5.6954 0.21 2.1184
                    CHANNELS 6 Xposition Yposition Zposition Zrotation Xrotation Yrotation
                    JOINT lMid2
                    {
                      OFFSET 3.9766 -1.54 2.3863
                      CHANNELS 6 Xposition Yposition Zposition Zrotation Xrotation Yrotation
                      JOINT lMid2_End
                      {
                        OFFSET 1.4042 -1.926 1.125
                        CHANNELS 6 Xposition Yposition Zposition Zrotation Xrotation Yrotation
                        End Site
                        {
                          OFFSET 0.014 -0.0193 0.0113
                        }
                      }
                    }
                  }
                }
                JOINT lCarpal2
                {
                  OFFSET 2.0956 0.66 -0.3894
                  CHANNELS 6 Xposition Yposition Zposition Zrotation Xrotation Yrotation
                  JOINT lRing1
                  {
                    OFFSET 5.0395 -0.09 2.4971
                    CHANNELS 6 Xposition Yposition Zposition Zrotation Xrotation Yrotation
                    JOINT lRing2
                    {
                      OFFSET 3.7921 -1.552 1.4806
                      CHANNELS 6 Xposition Yposition Zposition Zrotation Xrotation Yrotation
                      JOINT lRing2_End
                      {
                        OFFSET 1.4655 -1.808 0.9609
                        CHANNELS 6 Xposition Yposition Zposition Zrotation Xrotation Yrotation
                        End Site
                        {
                          OFFSET 0.0147 -0.0181 0.0096
                        }
                      }
                    }
                  }
                  JOINT lPinky1
                  {
                    OFFSET 4.9141 -1.269 0.3591
                    CHANNELS 6 Xposition Yposition Zposition Zrotation Xrotation Yrotation
                    JOINT lPinky2
                    {
                      OFFSET 3.1477 -1.685 0.8462
                      CHANNELS 6 Xposition Yposition Zposition Zrotation Xrotation Yrotation
                      JOINT lPinky2_End
                      {
                        OFFSET 0.8055 -1.585 0.7955
                        CHANNELS 6 Xposition Yposition Zposition Zrotation Xrotation Yrotation
                        End Site
                        {
                          OFFSET 0.0081 -0.0158 0.008
                        }
                      }
                    }
                  }
                }
              }
            }
          }
        }
        JOINT rCollar
        {
          OFFSET -1.7069 20.075 5.0056
          CHANNELS 6 Xposition Yposition Zposition Zrotation Xrotation Yrotation
          JOINT rShldr
          {
            OFFSET -13.6458 -0.047 -4.849
            CHANNELS 6 Xposition Yposition Zposition Zrotation Xrotation Yrotation
            JOINT rForeArm
            {
              OFFSET -28.3255 -0.9759 2.2888
              CHANNELS 6 Xposition Yposition Zposition Zrotation Xrotation Yrotation
              JOINT rHand
              {
                OFFSET -22.1583 -0.53 10.8316
                CHANNELS 6 Xposition Yposition Zposition Zrotation Xrotation Yrotation
                JOINT rThumb1
                {
                  OFFSET -0.786 0.112 2.5817
                  CHANNELS 6 Xposition Yposition Zposition Zrotation Xrotation Yrotation
                  JOINT rThumb2
                  {
                    OFFSET -0.3601 -0.878 4.2331
                    CHANNELS 6 Xposition Yposition Zposition Zrotation Xrotation Yrotation
                    JOINT rThumb2_End
                    {
                      OFFSET -1.8127 -1.216 2.2227
                      CHANNELS 6 Xposition Yposition Zposition Zrotation Xrotation Yrotation
                      End Site
                      {
                        OFFSET -0.0181 -0.0122 0.0222
                      }
                    }
                  }
                }
                JOINT rCarpal1
                {
                  OFFSET -0.9571 1.114 1.7695
                  CHANNELS 6 Xposition Yposition Zposition Zrotation Xrotation Yrotation
                  JOINT rIndex1
                  {
                    OFFSET -4.1246 0.487 4.1451
                    CHANNELS 6 Xposition Yposition Zposition Zrotation Xrotation Yrotation
                    JOINT rIndex2
                    {
                      OFFSET -3.4052 -1.454 2.7682
                      CHANNELS 6 Xposition Yposition Zposition Zrotation Xrotation Yrotation
                      JOINT rIndex2_End
                      {
                        OFFSET -1.4531 -1.795 1.2713
                        CHANNELS 6 Xposition Yposition Zposition Zrotation Xrotation Yrotation
                        End Site
                        {
                          OFFSET -0.0145 -0.018 0.0127
                        }
                      }
                    }
                  }
                  JOINT rMid1
                  {
                    OFFSET -5.6954 0.21 2.1184
                    CHANNELS 6 Xposition Yposition Zposition Zrotation Xrotation Yrotation
                    JOINT rMid2
                    {
                      OFFSET -3.9766 -1.54 2.3863
                      CHANNELS 6 Xposition Yposition Zposition Zrotation Xrotation Yrotation
                      JOINT rMid2_End
                      {
                        OFFSET -1.4042 -1.926 1.125
                        CHANNELS 6 Xposition Yposition Zposition Zrotation Xrotation Yrotation
                        End Site
                        {
                          OFFSET -0.014 -0.0193 0.0113
                        }
                      }
                    }
                  }
                }
                JOINT rCarpal2
                {
                  OFFSET -2.0956 0.66 -0.3894
                  CHANNELS 6 Xposition Yposition Zposition Zrotation Xrotation Yrotation
                  JOINT rRing1
                  {
                    OFFSET -5.0395 -0.09 2.4971
                    CHANNELS 6 Xposition Yposition Zposition Zrotation Xrotation Yrotation
                    JOINT rRing2
                    {
                      OFFSET -3.7921 -1.552 1.4806
                      CHANNELS 6 Xposition Yposition Zposition Zrotation Xrotation Yrotation
                      JOINT rRing2_End
                      {
                        OFFSET -1.4655 -1.808 0.9609
                        CHANNELS 6 Xposition Yposition Zposition Zrotation Xrotation Yrotation
                        End Site
                        {
                          OFFSET -0.0147 -0.0181 0.0096
                        }
                      }
                    }
                  }
                  JOINT rPinky1
                  {
                    OFFSET -4.9141 -1.269 0.3592
                    CHANNELS 6 Xposition Yposition Zposition Zrotation Xrotation Yrotation
                    JOINT rPinky2
                    {
                      OFFSET -3.1477 -1.685 0.8462
                      CHANNELS 6 Xposition Yposition Zposition Zrotation Xrotation Yrotation
                      JOINT rPinky2_End
                      {
                        OFFSET -0.8055 -1.585 0.7955
                        CHANNELS 6 Xposition Yposition Zposition Zrotation Xrotation Yrotation
                        End Site
                        {
                          OFFSET -0.0081 -0.0158 0.008
                        }
                      }
                    }
                  }
                }
              }
            }
          }
        }
      }
    }
  }
  JOINT lThigh
  {
    OFFSET 8.367 -8.2066 0.5982
    CHANNELS 6 Xposition Yposition Zposition Zrotation Xrotation Yrotation
    JOINT lShin
    {
      OFFSET 2.1923 -43.463 -0.4932
      CHANNELS 6 Xposition Yposition Zposition Zrotation Xrotation Yrotation
      JOINT lFoot
      {
        OFFSET 0.7333 -45.8593 -2.6451
        CHANNELS 6 Xposition Yposition Zposition Zrotation Xrotation Yrotation
        End Site
        {
          OFFSET 2.6618 -4.2699 12.3931
        }
      }
    }
  }
  JOINT rThigh
  {
    OFFSET -8.367 -8.2066 0.5982
    CHANNELS 6 Xposition Yposition Zposition Zrotation Xrotation Yrotation
    JOINT rShin
    {
      OFFSET -2.1923 -43.463 -0.4931
      CHANNELS 6 Xposition Yposition Zposition Zrotation Xrotation Yrotation
      JOINT rFoot
      {
        OFFSET -0.7333 -45.8593 -2.6451
        CHANNELS 6 Xposition Yposition Zposition Zrotation Xrotation Yrotation
        End Site
        {
          OFFSET -2.6618 -4.2699 12.3931
        }
      }
    }
  }
}
MOTION
Frames:	4
Frame Time:	0.0333333
0 90.174 2.4664 0 0 -0 0 -1.186 -1.5018 0 0 -0 0 9.964 0.2134 0 0 -0 0 13.134 -3.2573 0 0 -0 0 20.686 -1.6905 0 0 -0 0 7.238 -0.1237 0 0 -0 1.7069 20.075 5.0056 0 0 -0 13.6458 -0.047 -4.849 1.66051 0.0835086 5.75766 28.3255 -0.9759 2.2888 -0.0175111 0.895433 15.7816 22.1583 -0.53 10.8316 7.95139e-016 -1.98785e-016 -0 0.786 0.112 2.5817 5.46658e-016 -3.97569e-016 -0 0.3601 -0.878 4.2331 5.96354e-016 0 -0 1.8127 -1.216 2.2227 3.97569e-016 1.98785e-016 9.54166e-015 0.9571 1.114 1.7695 1.49089e-016 -3.97569e-016 -0 4.1246 0.487 4.1451 6.4605e-016 0 3.18055e-015 3.4052 -1.454 2.7682 5.96354e-016 0 3.18055e-015 1.4531 -1.795 1.2713 8.94531e-016 -1.98785e-016 6.36111e-015 5.6954 0.21 2.1184 6.4605e-016 0 3.18055e-015 3.9766 -1.54 2.3863 5.96354e-016 0 3.18055e-015 1.4042 -1.926 1.125 8.94531e-016 -1.98785e-016 6.36111e-015 2.0956 0.66 -0.3894 1.49089e-016 -3.97569e-016 -0 5.0395 -0.09 2.4971 6.4605e-016 0 3.18055e-015 3.7921 -1.552 1.4806 5.96354e-016 0 3.18055e-015 1.4655 -1.808 0.9609 8.94531e-016 -1.98785e-016 6.36111e-015 4.9141 -1.269 0.3591 6.4605e-016 0 3.18055e-015 3.1477 -1.685 0.8462 5.96354e-016 0 3.18055e-015 0.8055 -1.585 0.7955 8.94531e-016 -1.98785e-016 6.36111e-015 -1.7069 20.075 5.0056 0 0 -0 -13.6458 -0.047 -4.849 -1.4496 0.0636048 -5.0245 -28.3255 -0.9759 2.2888 -1.74811 1.20616 -16.8394 -22.1583 -0.53 10.8316 -1.19271e-015 1.98785e-016 -3.18055e-015 -0.786 0.112 2.5817 -3.97569e-016 1.98785e-016 -3.18055e-015 -0.3601 -0.878 4.2331 -2.98177e-016 1.98785e-016 -3.18055e-015 -1.8127 -1.216 2.2227 -2.98177e-016 3.97569e-016 -0 -0.9571 1.114 1.7695 4.96962e-016 0 -6.36111e-015 -4.1246 0.487 4.1451 -9.93923e-017 3.97569e-016 -0 -3.4052 -1.454 2.7682 -8.94531e-016 5.96354e-016 -0 -1.4531 -1.795 1.2713 -3.97569e-016 3.97569e-016 -0 -5.6954 0.21 2.1184 -9.93923e-017 3.97569e-016 -0 -3.9766 -1.54 2.3863 -8.94531e-016 5.96354e-016 -0 -1.4042 -1.926 1.125 -3.97569e-016 3.97569e-016 -0 -2.0956 0.66 -0.3894 4.96962e-016 0 -6.36111e-015 -5.0395 -0.09 2.4971 -9.93923e-017 3.97569e-016 -0 -3.7921 -1.552 1.4806 -8.94531e-016 5.96354e-016 -0 -1.4655 -1.808 0.9609 -3.97569e-016 3.97569e-016 -0 -4.9141 -1.269 0.3592 -9.93923e-017 3.97569e-016 -0 -3.1477 -1.685 0.8462 -8.94531e-016 5.96354e-016 -0 -0.8055 -1.585 0.7955 -3.97569e-016 3.97569e-016 -0 8.367 -8.2066 0.5982 -4.66115 -1.03232 0.120763 2.1923 -43.463 -0.4932 0.00990601 1.55097 0.177175 0.7333 -45.8593 -2.6451 4.65196 -0.54114 -0.255042 -8.367 -8.2066 0.5982 4.66115 -1.03222 -0.120763 -2.1923 -43.463 -0.4931 -0.00990459 1.5509 -0.177176 -0.7333 -45.8593 -2.6451 -4.65196 -0.541171 0.255041 
-0.391548 24.6021 48.2961 -0 -66.6681 -0 0 -1.186 -1.5018 -0.0907686 1.36099 -0.109221 -5.55112e-017 9.964 0.2134 -0.179017 2.72218 -0.216376 -5.55112e-017 13.134 -3.2573 -0.179017 2.72216 -0.216376 2.77556e-017 20.686 -1.6905 4.51471e-006 31.8215 -2.04471e-006 0 7.238 -0.1237 3.91216e-008 -16.2026 1.20697e-007 1.7069 20.075 5.0056 -17.2367 -7.34534 10.253 13.6458 -0.047 -4.849 -42.4305 5.04548 -26.0778 28.3255 -0.9759 2.2888 -15.3664 -7.51864 -67.797 22.1583 -0.53 10.8316 -26.6709 16.9036 19.7042 0.786 0.112 2.5817 1.59028e-015 -4.77083e-015 6.36111e-015 0.3601 -0.878 4.2331 3.18055e-015 6.36111e-015 9.54166e-015 1.8127 -1.216 2.2227 3.69005e-007 6.4353e-007 -4.14439e-007 0.9571 1.114 1.7695 1.59028e-015 -9.54166e-015 6.36111e-015 4.1246 0.487 4.1451 8.82781e-031 -3.18055e-015 1.59028e-014 3.4052 -1.454 2.7682 -1.59028e-015 1.59028e-015 -0 1.4531 -1.795 1.2713 3.69005e-007 6.4353e-007 -4.14439e-007 5.6954 0.21 2.1184 8.82781e-031 -3.18055e-015 1.59028e-014 3.9766 -1.54 2.3863 -1.59028e-015 1.59028e-015 -0 1.4042 -1.926 1.125 3.69005e-007 6.4353e-007 -4.14439e-007 2.0956 0.66 -0.3894 1.59028e-015 -9.54166e-015 6.36111e-015 5.0395 -0.09 2.4971 8.82781e-031 -3.18055e-015 1.59028e-014 3.7921 -1.552 1.4806 -1.59028e-015 1.59028e-015 -0 1.4655 -1.808 0.9609 3.69005e-007 6.4353e-007 -4.14439e-007 4.9141 -1.269 0.3591 8.82781e-031 -3.18055e-015 1.59028e-014 3.1477 -1.685 0.8462 -1.59028e-015 1.59028e-015 -0 0.8055 -1.585 0.7955 3.69005e-007 6.4353e-007 -4.14439e-007 -1.7069 20.075 5.0056 11.8429 -6.1142 -4.33455 -13.6458 -0.047 -4.849 43.5192 6.61987 15.1418 -28.3255 -0.9759 2.2888 14.0764 -10.5874 47.4418 -22.1583 -0.53 10.8316 21.0946 22.1053 7.40689 -0.786 0.112 2.5817 -6.36111e-015 -3.18055e-015 3.18055e-015 -0.3601 -0.878 4.2331 4.77083e-015 0 -3.18055e-015 -1.8127 -1.216 2.2227 -3.18055e-015 9.54166e-015 -3.18055e-015 -0.9571 1.114 1.7695 -4.77083e-015 -4.77083e-015 6.36111e-015 -4.1246 0.487 4.1451 6.36111e-015 0 -3.18055e-015 -3.4052 -1.454 2.7682 -3.18055e-015 7.95139e-015 -0 -1.4531 -1.795 1.2713 -4.77083e-015 7.95139e-015 3.18055e-015 -5.6954 0.21 2.1184 6.36111e-015 0 -3.18055e-015 -3.9766 -1.54 2.3863 -3.18055e-015 7.95139e-015 -0 -1.4042 -1.926 1.125 -4.77083e-015 7.95139e-015 3.18055e-015 -2.0956 0.66 -0.3894 -4.77083e-015 -4.77083e-015 6.36111e-015 -5.0395 -0.09 2.4971 6.36111e-015 0 -3.18055e-015 -3.7921 -1.552 1.4806 -3.18055e-015 7.95139e-015 -0 -1.4655 -1.808 0.9609 -4.77083e-015 7.95139e-015 3.18055e-015 -4.9141 -1.269 0.3592 6.36111e-015 0 -3.18055e-015 -3.1477 -1.685 0.8462 -3.18055e-015 7.95139e-015 -0 -0.8055 -1.585 0.7955 -4.77083e-015 7.95139e-015 3.18055e-015 8.367 -8.2066 0.5982 7.41708 0.990786 -4.15874 2.1923 -43.463 -0.4932 1.41769 3.75851 0.321056 0.7333 -45.8593 -2.6451 6.96726 13.1323 5.50698 -8.367 -8.2066 0.5982 0.185276 -12.0213 3.40804 -2.1923 -43.463 -0.4931 0.975475 28.8361 -2.65883 -0.7333 -45.8593 -2.6451 -5.62555 16.0883 -5.21954 
-0.587616 -8.08052 71.6917 -180 -83.3313 -180 0 -1.186 -1.5018 -0.134828 1.97322 -0.155046 5.55112e-017 9.964 0.2134 -0.264544 3.94679 -0.305715 -1.11022e-016 13.134 -3.2573 -0.264544 3.9468 -0.305715 1.11022e-016 20.686 -1.6905 1.34648e-005 46.2831 -9.63559e-006 0 7.238 -0.1237 -1.36147e-007 -23.9596 -1.9529e-007 1.7069 20.075 5.0056 -24.129 -10.4613 14.9986 13.6458 -0.047 -4.849 -60.49 5.79423 -40.5055 28.3255 -0.9759 2.2888 -17.525 25.3787 -82.6446 22.1583 -0.53 10.8316 -41.2457 23.9201 30.8011 0.786 0.112 2.5817 -1.93815e-015 0 3.18055e-015 0.3601 -0.878 4.2331 9.93923e-016 6.36111e-015 1.58034e-014 1.8127 -1.216 2.2227 5.86415e-015 3.18055e-015 7.40473e-015 0.9571 1.114 1.7695 -2.83268e-015 -9.54166e-015 -1.93815e-015 4.1246 0.487 4.1451 -1.44119e-015 6.36111e-015 1.20265e-014 3.4052 -1.454 2.7682 5.46658e-016 3.18055e-015 1.98785e-016 1.4531 -1.795 1.2713 3.32964e-015 3.18055e-015 -2.68359e-015 5.6954 0.21 2.1184 -1.44119e-015 6.36111e-015 1.20265e-014 3.9766 -1.54 2.3863 5.46658e-016 3.18055e-015 1.98785e-016 1.4042 -1.926 1.125 3.32964e-015 3.18055e-015 -2.68359e-015 2.0956 0.66 -0.3894 -2.83268e-015 -9.54166e-015 -1.93815e-015 5.0395 -0.09 2.4971 -1.44119e-015 6.36111e-015 1.20265e-014 3.7921 -1.552 1.4806 5.46658e-016 3.18055e-015 1.98785e-016 1.4655 -1.808 0.9609 3.32964e-015 3.18055e-015 -2.68359e-015 4.9141 -1.269 0.3591 -1.44119e-015 6.36111e-015 1.20265e-014 3.1477 -1.685 0.8462 5.46658e-016 3.18055e-015 1.98785e-016 0.8055 -1.585 0.7955 3.32964e-015 3.18055e-015 -2.68359e-015 -1.7069 20.075 5.0056 16.8674 -8.83759 -6.32467 -13.6458 -0.047 -4.849 62.2368 8.87206 24.398 -28.3255 -0.9759 2.2888 24.0475 -0.419284 73.9059 -22.1583 -0.53 10.8316 30.212 31.2938 10.4563 -0.786 0.112 2.5817 2.63707e-006 -1.64119e-006 7.81707e-007 -0.3601 -0.878 4.2331 -2.63707e-006 1.64119e-006 -7.81707e-007 -1.8127 -1.216 2.2227 2.63707e-006 -1.64119e-006 7.81707e-007 -0.9571 1.114 1.7695 7.95139e-015 6.36111e-015 -0 -4.1246 0.487 4.1451 2.63707e-006 -1.64119e-006 7.81707e-007 -3.4052 -1.454 2.7682 -2.63707e-006 1.64119e-006 -7.81707e-007 -1.4531 -1.795 1.2713 2.63707e-006 -1.64119e-006 7.81707e-007 -5.6954 0.21 2.1184 2.63707e-006 -1.64119e-006 7.81707e-007 -3.9766 -1.54 2.3863 -2.63707e-006 1.64119e-006 -7.81707e-007 -1.4042 -1.926 1.125 2.63707e-006 -1.64119e-006 7.81707e-007 -2.0956 0.66 -0.3894 7.95139e-015 6.36111e-015 -0 -5.0395 -0.09 2.4971 2.63707e-006 -1.64119e-006 7.81707e-007 -3.7921 -1.552 1.4806 -2.63707e-006 1.64119e-006 -7.81707e-007 -1.4655 -1.808 0.9609 2.63707e-006 -1.64119e-006 7.81707e-007 -4.9141 -1.269 0.3592 2.63707e-006 -1.64119e-006 7.81707e-007 -3.1477 -1.685 0.8462 -2.63707e-006 1.64119e-006 -7.81707e-007 -0.8055 -1.585 0.7955 2.63707e-006 -1.64119e-006 7.81707e-007 8.367 -8.2066 0.5982 12.9689 2.21073 -5.74094 2.1923 -43.463 -0.4932 2.07863 4.77242 0.461321 0.7333 -45.8593 -2.6451 7.42304 18.7591 7.93513 -8.367 -8.2066 0.5982 -1.32265 -17.12 4.84146 -2.1923 -43.463 -0.4931 1.75983 41.8565 -2.85304 -0.7333 -45.8593 -2.6451 -4.82349 23.0254 -9.14556 
-0.53738 -0.75043 66.2947 -180 -89.9981 -180 0 -1.186 -1.5018 -0.124866 1.83719 -0.145049 0 9.964 0.2134 -0.245264 3.67468 -0.286311 -5.55112e-017 13.134 -3.2573 -0.245264 3.67468 -0.286311 5.55112e-017 20.686 -1.6905 9.06007e-006 43.3856 -5.45976e-006 2.77556e-017 7.238 -0.1237 -1.3338e-007 -23.2713 2.07993e-007 1.7069 20.075 5.0056 -22.6436 -9.78469 13.9335 13.6458 -0.047 -4.849 -56.541 5.74334 -37.3 28.3255 -0.9759 2.2888 -17.7547 16.9985 -81.1038 22.1583 -0.53 10.8316 -38.4903 22.6354 28.3291 0.786 0.112 2.5817 -3.83407e-006 2.02635e-006 2.02643e-006 0.3601 -0.878 4.2331 8.33405e-007 2.99707e-006 -3.4358e-006 1.8127 -1.216 2.2227 -6.0021e-006 1.31679e-006 2.93613e-007 0.9571 1.114 1.7695 3.18055e-015 6.36111e-015 5.56597e-015 4.1246 0.487 4.1451 -3.83407e-006 2.02635e-006 2.02643e-006 3.4052 -1.454 2.7682 8.33405e-007 2.99707e-006 -3.4358e-006 1.4531 -1.795 1.2713 -6.0021e-006 1.31679e-006 2.93613e-007 5.6954 0.21 2.1184 -3.83407e-006 2.02635e-006 2.02643e-006 3.9766 -1.54 2.3863 8.33405e-007 2.99707e-006 -3.4358e-006 1.4042 -1.926 1.125 -6.0021e-006 1.31679e-006 2.93613e-007 2.0956 0.66 -0.3894 3.18055e-015 6.36111e-015 5.56597e-015 5.0395 -0.09 2.4971 -3.83407e-006 2.02635e-006 2.02643e-006 3.7921 -1.552 1.4806 8.33405e-007 2.99707e-006 -3.4358e-006 1.4655 -1.808 0.9609 -6.0021e-006 1.31679e-006 2.93613e-007 4.9141 -1.269 0.3591 -3.83407e-006 2.02635e-006 2.02643e-006 3.1477 -1.685 0.8462 8.33405e-007 2.99707e-006 -3.4358e-006 0.8055 -1.585 0.7955 -6.0021e-006 1.31679e-006 2.93613e-007 -1.7069 20.075 5.0056 15.7674 -8.23473 -5.87912 -13.6458 -0.047 -4.849 58.1505 8.42854 22.3296 -28.3255 -0.9759 2.2888 22.2432 -3.54792 67.8439 -22.1583 -0.53 10.8316 28.4716 29.4479 9.7332 -0.786 0.112 2.5817 -3.06657e-006 -2.44563e-007 -1.36616e-006 -0.3601 -0.878 4.2331 1.51482e-007 -1.36253e-006 -5.66571e-008 -1.8127 -1.216 2.2227 -3.12639e-006 1.24289e-006 -5.9602e-007 -0.9571 1.114 1.7695 -1.47101e-014 -6.36111e-015 -2.38542e-015 -4.1246 0.487 4.1451 -3.06657e-006 -2.44563e-007 -1.36616e-006 -3.4052 -1.454 2.7682 1.51482e-007 -1.36253e-006 -5.66571e-008 -1.4531 -1.795 1.2713 -3.12639e-006 1.24289e-006 -5.9602e-007 -5.6954 0.21 2.1184 -3.06657e-006 -2.44563e-007 -1.36616e-006 -3.9766 -1.54 2.3863 1.51482e-007 -1.36253e-006 -5.66571e-008 -1.4042 -1.926 1.125 -3.12639e-006 1.24289e-006 -5.9602e-007 -2.0956 0.66 -0.3894 -1.47101e-014 -6.36111e-015 -2.38542e-015 -5.0395 -0.09 2.4971 -3.06657e-006 -2.44563e-007 -1.36616e-006 -3.7921 -1.552 1.4806 1.51482e-007 -1.36253e-006 -5.66571e-008 -1.4655 -1.808 0.9609 -3.12639e-006 1.24289e-006 -5.9602e-007 -4.9141 -1.269 0.3592 -3.06657e-006 -2.44563e-007 -1.36616e-006 -3.1477 -1.685 0.8462 1.51482e-007 -1.36253e-006 -5.66571e-008 -0.8055 -1.585 0.7955 -3.12639e-006 1.24289e-006 -5.9602e-007 8.367 -8.2066 0.5982 11.7786 1.80495 -4.79463 2.1923 -43.463 -0.4932 1.93024 4.58245 0.415791 0.7333 -45.8593 -2.6451 7.55483 17.4021 6.76214 -8.367 -8.2066 0.5982 -1.25819 -16.0157 4.03617 -2.1923 -43.463 -0.4931 1.57968 38.9545 -2.59763 -0.7333 -45.8593 -2.6451 -5.3673 21.5112 -7.93127 
